<?xml version="1.0" encoding="UTF-8" standalone="no"?>
<!-- Generator: Adobe Illustrator 13.0.0, SVG Export Plug-In . SVG Version: 6.00 Build 14948)  -->

<svg
   xmlns:dc="http://purl.org/dc/elements/1.1/"
   xmlns:cc="http://creativecommons.org/ns#"
   xmlns:rdf="http://www.w3.org/1999/02/22-rdf-syntax-ns#"
   xmlns:svg="http://www.w3.org/2000/svg"
   xmlns="http://www.w3.org/2000/svg"
   xmlns:sodipodi="http://sodipodi.sourceforge.net/DTD/sodipodi-0.dtd"
   xmlns:inkscape="http://www.inkscape.org/namespaces/inkscape"
   version="1.1"
   id="Calque_1"
   x="0px"
   y="0px"
   width="39px"
   height="18.8px"
   viewBox="0 0 39 18.8"
   enable-background="new 0 0 39 18.8"
   xml:space="preserve"
   inkscape:version="0.48.5 r10040"
   sodipodi:docname="off.svg"><metadata
   id="metadata3003"><rdf:RDF><cc:Work
       rdf:about=""><dc:format>image/svg+xml</dc:format><dc:type
         rdf:resource="http://purl.org/dc/dcmitype/StillImage" /><dc:title></dc:title></cc:Work></rdf:RDF></metadata><defs
   id="defs3001" /><sodipodi:namedview
   pagecolor="#ffffff"
   bordercolor="#666666"
   borderopacity="1"
   objecttolerance="10"
   gridtolerance="10"
   guidetolerance="10"
   inkscape:pageopacity="0"
   inkscape:pageshadow="2"
   inkscape:window-width="1920"
   inkscape:window-height="1058"
   id="namedview2999"
   showgrid="false"
   inkscape:zoom="22.564103"
   inkscape:cx="12.586364"
   inkscape:cy="12.24458"
   inkscape:window-x="-8"
   inkscape:window-y="-8"
   inkscape:window-maximized="1"
   inkscape:current-layer="sine" />
<g
   id="sine">
	
<g
   transform="matrix(0.59190276,0,0,0.61098973,6.763487,3.6579746)"
   style="font-size:25.53591156px;font-style:normal;font-variant:normal;font-weight:bold;font-stretch:normal;text-align:start;line-height:113.99999857%;letter-spacing:0px;word-spacing:0px;writing-mode:lr-tb;text-anchor:start;fill:#000000;fill-opacity:1;stroke:none;font-family:Arial;-inkscape-font-specification:Arial Bold"
   id="text2985"><path
     d="M 1.084838,9.718886 C 1.084837,7.8837626 1.3592875,6.3435623 1.9081907,5.0982804 2.3178165,4.1807278 2.8769584,3.3573759 3.585618,2.6282225 4.2942704,1.8991011 5.070515,1.3583925 5.9143541,1.006095 7.0367282,0.53094444 8.3311519,0.29336034 9.7976291,0.29334202 c 2.6543779,1.832e-5 4.7782979,0.82337008 6.3717659,2.47005788 1.593435,1.6467193 2.390161,3.9365385 2.39018,6.8694642 -1.9e-5,2.9083669 -0.790599,5.1838479 -2.371746,6.8264539 -1.58118,1.642609 -3.694859,2.463912 -6.3410445,2.463913 C 7.1678091,18.92323 5.0377448,18.106023 3.4565851,16.471607 1.8754185,14.837193 1.084837,12.586289 1.084838,9.718886 z M 4.8329357,9.5959976 c -4.8e-6,2.0399544 0.4710671,3.5863004 1.4132172,4.6390394 0.9421376,1.052747 2.1382507,1.579119 3.5883427,1.579116 1.4500724,3e-6 2.6400414,-0.522273 3.5699094,-1.566827 0.929842,-1.044547 1.394769,-2.611374 1.394784,-4.7004837 C 14.799174,7.4823274 14.346535,5.9421271 13.441272,4.9262366 12.535981,3.9103734 11.333723,3.402435 9.8344956,3.4024197 8.3352482,3.402435 7.1268463,3.9165178 6.2092864,4.9446699 5.291714,5.9728491 4.8329309,7.5232902 4.8329357,9.5959976 z"
     style="font-size:25.53591156px;font-style:normal;font-variant:normal;font-weight:bold;font-stretch:normal;text-align:start;line-height:113.99999857%;writing-mode:lr-tb;text-anchor:start;font-family:Arial;-inkscape-font-specification:Arial Bold"
     id="path2996"
     inkscape:connector-curvature="0" /><path
     d="m 19.51572,5.6424172 1.945118,0 0,-0.9974965 c 0,-1.1138558 0.11845,-1.9451021 0.355358,-2.4937414 0.236903,-0.5486058 0.673307,-0.9954007 1.309214,-1.34038595 0.6359,-0.34494913 1.440131,-0.51743274 2.412695,-0.51745133 0.997489,1.859e-5 1.974204,0.14964292 2.930146,0.44887345 L 27.99444,3.186082 C 27.437497,3.0530983 26.901343,2.9865986 26.385977,2.9865827 25.87891,2.9865986 25.51524,3.1050512 25.294965,3.3419408 25.074679,3.5788616 25.026487,4.0371267 24.964545,4.7072642 l 0,0.935153 2.618428,0 0,2.7555843 -2.618428,0 0,10.4861825 -3.503707,0 0,-10.4861825 -1.945118,0 z"
     style="font-size:25.53591156px;font-style:normal;font-variant:normal;font-weight:bold;font-stretch:normal;text-align:start;line-height:113.99999857%;writing-mode:lr-tb;text-anchor:start;font-family:Arial;-inkscape-font-specification:Arial Bold"
     id="path2998"
     inkscape:connector-curvature="0"
     sodipodi:nodetypes="ccscccccccsccccccccc" /><path
     d="m 28.525267,5.6424172 1.945118,0 0,-0.9974965 c -2e-6,-1.1138558 0.11845,-1.9451021 0.355358,-2.4937414 0.236903,-0.5486058 0.673307,-0.9954007 1.309214,-1.34038595 0.6359,-0.34494913 1.440131,-0.51743274 2.412695,-0.51745133 0.997489,1.859e-5 1.974204,0.14964292 2.930146,0.44887345 L 37.003987,3.186082 C 36.447044,3.0530983 35.91089,2.9865986 35.395524,2.9865827 c -0.507067,1.59e-5 -0.870737,0.1184685 -1.091012,0.3553581 -0.220286,0.2369208 -0.330426,0.6920281 -0.33042,1.3653234 l 0,0.935153 2.618428,0 0,2.7555843 -2.618428,0 0,10.4861825 -3.503707,0 0,-10.4861825 -1.945118,0 z"
     style="font-size:25.53591156px;font-style:normal;font-variant:normal;font-weight:bold;font-stretch:normal;text-align:start;line-height:113.99999857%;writing-mode:lr-tb;text-anchor:start;font-family:Arial;-inkscape-font-specification:Arial Bold"
     id="path3000"
     inkscape:connector-curvature="0" /></g><text
   xml:space="preserve"
   style="font-size:40px;font-style:normal;font-weight:normal;line-height:125%;letter-spacing:0px;word-spacing:0px;fill:#000000;fill-opacity:1;stroke:none;font-family:Sans"
   x="52.678654"
   y="-6.3328257"
   id="text2989"
   sodipodi:linespacing="125%"><tspan
     sodipodi:role="line"
     id="tspan2991"
     x="52.678654"
     y="-6.3328257" /></text>
<rect
   id="rect3002"
   width="37.970261"
   height="17.805489"
   x="0.51486921"
   y="0.52396017"
   style="fill:none;stroke:#000000;stroke-width:0.96610361000000000;stroke-opacity:0" /></g>
</svg>